<?xml version="1.0" encoding="utf-8"?>
<!-- Generator: Adobe Illustrator 22.0.0, SVG Export Plug-In . SVG Version: 6.00 Build 0)  -->
<svg version="1.1" id="Layer_1" xmlns="http://www.w3.org/2000/svg" xmlns:xlink="http://www.w3.org/1999/xlink" x="0px" y="0px"
	 viewBox="0 0 200 200" style="enable-background:new 0 0 200 200;" xml:space="preserve">
<style type="text/css">
	.st0{fill:#FFFFFF;}
	.st1{fill:#10a9f5;}
</style>
<circle cx="100" cy="100" r="100" class="st1"/>
<path class="st0" d="M198.2,187.8l-48.4-85c-0.8,1.1-1.6,2.1-2.5,3l-41.6,41.6c-0.9,0.9-2,1.7-3,2.5l86.1,49c1.2,0.7,2.5,1,3.8,1
	h0.1c3.9,0.2,7.4-3.3,7.4-7.3C200,190.8,199.3,189.1,198.2,187.8L198.2,187.8z M143.4,79.9c0-5.9-2.3-11.4-6.4-15.6
	c-6.7-6.7-17.5-8.2-25.6-4.1c-6.1-4.4-13.5-6.7-21.1-6.7c-9.8,0-19,3.8-25.9,10.7c-7,7-10.7,16.2-10.7,26c0,7.7,2.3,15,6.7,21.2
	c-1.6,3-2.4,6.5-2.4,10c0,5.9,2.3,11.4,6.4,15.6c4.1,4.2,9.7,6.4,15.5,6.4c5.9,0,11.4-2.3,15.5-6.4L137,95.5
	C141.1,91.3,143.4,85.8,143.4,79.9z"/>
</svg>
